<svg xmlns="http://www.w3.org/2000/svg" xmlns:xlink="http://www.w3.org/1999/xlink" width="140" zoomAndPan="magnify" viewBox="0 0 104.88 30.000001" height="40" preserveAspectRatio="xMidYMid meet" version="1.0"><defs><g/><clipPath id="a0574c91b8"><path d="M 2.792969 17.777344 L 100.777344 17.777344 L 100.777344 20.679688 L 2.792969 20.679688 Z M 2.792969 17.777344 " clip-rule="nonzero"/></clipPath></defs><g clip-path="url(#a0574c91b8)"><path fill="#3e97ff" d="M 96.101562 29.535156 L 96.101562 61.761719 L 104.050781 69.710938 L 104.050781 74.824219 L 1.664062 74.824219 L 1.664062 -38 L 104.050781 -38 L 104.050781 21.589844 Z M 96.101562 29.535156 " fill-opacity="1" fill-rule="nonzero"/></g><g fill="#3e97ff" fill-opacity="1"><g transform="translate(2.788296, 18.162783)"><g><path d="M 0.125 0 C 0.0390625 0 0 -0.0390625 0 -0.125 L 0 -4.9375 C 0 -5.300781 0.117188 -5.601562 0.359375 -5.84375 C 0.597656 -6.082031 0.898438 -6.203125 1.265625 -6.203125 L 7.421875 -6.203125 C 7.785156 -6.203125 8.085938 -6.082031 8.328125 -5.84375 C 8.566406 -5.601562 8.6875 -5.300781 8.6875 -4.9375 L 8.6875 -0.125 C 8.6875 -0.0390625 8.644531 0 8.5625 0 L 7.5625 0 C 7.476562 0 7.4375 -0.0390625 7.4375 -0.125 L 7.4375 -2.484375 L 1.234375 -2.484375 L 1.234375 -0.125 C 1.234375 -0.0390625 1.191406 0 1.109375 0 Z M 1.234375 -3.71875 L 7.4375 -3.71875 L 7.4375 -4.71875 C 7.4375 -4.78125 7.410156 -4.835938 7.359375 -4.890625 C 7.316406 -4.941406 7.265625 -4.96875 7.203125 -4.96875 L 1.484375 -4.96875 C 1.421875 -4.96875 1.363281 -4.941406 1.3125 -4.890625 C 1.257812 -4.835938 1.234375 -4.78125 1.234375 -4.71875 Z M 1.234375 -3.71875 "/></g></g></g><g fill="#ffffff" fill-opacity="1"><g transform="translate(13.961935, 18.162783)"><g><path d="M 1.265625 0 C 0.898438 0 0.597656 -0.117188 0.359375 -0.359375 C 0.117188 -0.597656 0 -0.898438 0 -1.265625 L 0 -6.078125 C 0 -6.160156 0.0390625 -6.203125 0.125 -6.203125 L 1.109375 -6.203125 C 1.191406 -6.203125 1.234375 -6.160156 1.234375 -6.078125 L 1.234375 -1.484375 C 1.234375 -1.421875 1.257812 -1.363281 1.3125 -1.3125 C 1.363281 -1.257812 1.421875 -1.234375 1.484375 -1.234375 L 7.203125 -1.234375 C 7.265625 -1.234375 7.316406 -1.257812 7.359375 -1.3125 C 7.410156 -1.363281 7.4375 -1.421875 7.4375 -1.484375 L 7.4375 -6.078125 C 7.4375 -6.160156 7.476562 -6.203125 7.5625 -6.203125 L 8.5625 -6.203125 C 8.644531 -6.203125 8.6875 -6.160156 8.6875 -6.078125 L 8.6875 -1.265625 C 8.6875 -0.898438 8.566406 -0.597656 8.328125 -0.359375 C 8.085938 -0.117188 7.785156 0 7.421875 0 Z M 1.265625 0 "/></g></g></g><g fill="#ffffff" fill-opacity="1"><g transform="translate(25.131808, 18.162783)"><g><path d="M 3.84375 0 C 3.757812 0 3.71875 -0.0390625 3.71875 -0.125 L 3.71875 -4.96875 L 0.125 -4.96875 C 0.0390625 -4.96875 0 -5.007812 0 -5.09375 L 0 -6.078125 C 0 -6.160156 0.0390625 -6.203125 0.125 -6.203125 L 8.5625 -6.203125 C 8.644531 -6.203125 8.6875 -6.160156 8.6875 -6.078125 L 8.6875 -5.09375 C 8.6875 -5.007812 8.644531 -4.96875 8.5625 -4.96875 L 4.96875 -4.96875 L 4.96875 -0.125 C 4.96875 -0.0390625 4.925781 0 4.84375 0 Z M 3.84375 0 "/></g></g></g><g fill="#ffffff" fill-opacity="1"><g transform="translate(36.30168, 18.162783)"><g><path d="M 1.265625 0 C 0.898438 0 0.597656 -0.117188 0.359375 -0.359375 C 0.117188 -0.597656 0 -0.898438 0 -1.265625 L 0 -4.9375 C 0 -5.300781 0.117188 -5.601562 0.359375 -5.84375 C 0.597656 -6.082031 0.898438 -6.203125 1.265625 -6.203125 L 7.421875 -6.203125 C 7.785156 -6.203125 8.085938 -6.082031 8.328125 -5.84375 C 8.566406 -5.601562 8.6875 -5.300781 8.6875 -4.9375 L 8.6875 -1.265625 C 8.6875 -0.898438 8.566406 -0.597656 8.328125 -0.359375 C 8.085938 -0.117188 7.785156 0 7.421875 0 Z M 1.484375 -1.234375 L 7.203125 -1.234375 C 7.265625 -1.234375 7.316406 -1.257812 7.359375 -1.3125 C 7.410156 -1.363281 7.4375 -1.421875 7.4375 -1.484375 L 7.4375 -4.71875 C 7.4375 -4.78125 7.410156 -4.835938 7.359375 -4.890625 C 7.316406 -4.941406 7.265625 -4.96875 7.203125 -4.96875 L 1.484375 -4.96875 C 1.421875 -4.96875 1.363281 -4.941406 1.3125 -4.890625 C 1.257812 -4.835938 1.234375 -4.78125 1.234375 -4.71875 L 1.234375 -1.484375 C 1.234375 -1.421875 1.257812 -1.363281 1.3125 -1.3125 C 1.363281 -1.257812 1.421875 -1.234375 1.484375 -1.234375 Z M 1.484375 -1.234375 "/></g></g></g><g fill="#3e97ff" fill-opacity="1"><g transform="translate(47.475, 18.162783)"><g><path d="M 3.84375 0 C 3.757812 0 3.71875 -0.0390625 3.71875 -0.125 L 3.71875 -4.96875 L 0.125 -4.96875 C 0.0390625 -4.96875 0 -5.007812 0 -5.09375 L 0 -6.078125 C 0 -6.160156 0.0390625 -6.203125 0.125 -6.203125 L 8.5625 -6.203125 C 8.644531 -6.203125 8.6875 -6.160156 8.6875 -6.078125 L 8.6875 -5.09375 C 8.6875 -5.007812 8.644531 -4.96875 8.5625 -4.96875 L 4.96875 -4.96875 L 4.96875 -0.125 C 4.96875 -0.0390625 4.925781 0 4.84375 0 Z M 3.84375 0 "/></g></g></g><g fill="#ffffff" fill-opacity="1"><g transform="translate(58.648641, 18.162783)"><g><path d="M 0.125 0 C 0.0390625 0 0 -0.0390625 0 -0.125 L 0 -6.078125 C 0 -6.160156 0.0390625 -6.203125 0.125 -6.203125 L 7.421875 -6.203125 C 7.785156 -6.203125 8.085938 -6.082031 8.328125 -5.84375 C 8.566406 -5.601562 8.6875 -5.300781 8.6875 -4.9375 L 8.6875 -3.75 C 8.6875 -3.382812 8.566406 -3.082031 8.328125 -2.84375 C 8.085938 -2.601562 7.785156 -2.484375 7.421875 -2.484375 L 7.296875 -2.484375 L 8.15625 0 L 6.796875 0 L 5.9375 -2.484375 L 1.234375 -2.484375 L 1.234375 -0.125 C 1.234375 -0.0390625 1.191406 0 1.109375 0 Z M 1.234375 -3.71875 L 7.203125 -3.71875 C 7.265625 -3.71875 7.316406 -3.742188 7.359375 -3.796875 C 7.410156 -3.847656 7.4375 -3.90625 7.4375 -3.96875 L 7.4375 -4.71875 C 7.4375 -4.78125 7.410156 -4.835938 7.359375 -4.890625 C 7.316406 -4.941406 7.265625 -4.96875 7.203125 -4.96875 L 1.234375 -4.96875 Z M 1.234375 -3.71875 "/></g></g></g><g fill="#ffffff" fill-opacity="1"><g transform="translate(69.818513, 18.162783)"><g><path d="M 1.265625 0 C 0.898438 0 0.597656 -0.117188 0.359375 -0.359375 C 0.117188 -0.597656 0 -0.898438 0 -1.265625 L 0 -4.9375 C 0 -5.300781 0.117188 -5.601562 0.359375 -5.84375 C 0.597656 -6.082031 0.898438 -6.203125 1.265625 -6.203125 L 8.5625 -6.203125 C 8.644531 -6.203125 8.6875 -6.160156 8.6875 -6.078125 L 8.6875 -5.09375 C 8.6875 -5.007812 8.644531 -4.96875 8.5625 -4.96875 L 1.484375 -4.96875 C 1.421875 -4.96875 1.363281 -4.941406 1.3125 -4.890625 C 1.257812 -4.835938 1.234375 -4.78125 1.234375 -4.71875 L 1.234375 -3.71875 L 7.96875 -3.71875 C 8.0625 -3.71875 8.109375 -3.675781 8.109375 -3.59375 L 8.109375 -2.609375 C 8.109375 -2.523438 8.0625 -2.484375 7.96875 -2.484375 L 1.234375 -2.484375 L 1.234375 -1.484375 C 1.234375 -1.421875 1.257812 -1.363281 1.3125 -1.3125 C 1.363281 -1.257812 1.421875 -1.234375 1.484375 -1.234375 L 8.5625 -1.234375 C 8.644531 -1.234375 8.6875 -1.191406 8.6875 -1.109375 L 8.6875 -0.125 C 8.6875 -0.0390625 8.644531 0 8.5625 0 Z M 1.265625 0 "/></g></g></g><g fill="#ffffff" fill-opacity="1"><g transform="translate(80.988385, 18.162783)"><g><path d="M 8.5625 0 L 7.4375 0 L 1.234375 -4.59375 L 1.234375 -0.125 C 1.234375 -0.0390625 1.191406 0 1.109375 0 L 0.125 0 C 0.0390625 0 0 -0.0390625 0 -0.125 L 0 -6.078125 C 0 -6.160156 0.0390625 -6.203125 0.125 -6.203125 L 1.234375 -6.203125 L 7.4375 -1.609375 L 7.4375 -6.078125 C 7.4375 -6.160156 7.476562 -6.203125 7.5625 -6.203125 L 8.5625 -6.203125 C 8.644531 -6.203125 8.6875 -6.160156 8.6875 -6.078125 L 8.6875 -0.125 C 8.6875 -0.0390625 8.644531 0 8.5625 0 Z M 8.5625 0 "/></g></g></g><g fill="#ffffff" fill-opacity="1"><g transform="translate(92.158257, 18.162783)"><g><path d="M 0.125 0 C 0.0390625 0 0 -0.0390625 0 -0.125 L 0 -6.078125 C 0 -6.160156 0.0390625 -6.203125 0.125 -6.203125 L 7.421875 -6.203125 C 7.785156 -6.203125 8.085938 -6.082031 8.328125 -5.84375 C 8.566406 -5.601562 8.6875 -5.300781 8.6875 -4.9375 L 8.6875 -1.265625 C 8.6875 -0.898438 8.566406 -0.597656 8.328125 -0.359375 C 8.085938 -0.117188 7.785156 0 7.421875 0 Z M 1.234375 -1.234375 L 7.203125 -1.234375 C 7.265625 -1.234375 7.316406 -1.257812 7.359375 -1.3125 C 7.410156 -1.363281 7.4375 -1.421875 7.4375 -1.484375 L 7.4375 -4.71875 C 7.4375 -4.78125 7.410156 -4.835938 7.359375 -4.890625 C 7.316406 -4.941406 7.265625 -4.96875 7.203125 -4.96875 L 1.234375 -4.96875 Z M 1.234375 -1.234375 "/></g></g></g></svg>